<?xml version="1.0" encoding="UTF-8" standalone="no"?>
<!-- Created with Inkscape (http://www.inkscape.org/) -->

<svg
   width="28.086mm"
   height="36.040001mm"
   viewBox="0 0 28.086 36.040001"
   version="1.1"
   id="svg1"
   inkscape:version="1.3 (0e150ed6c4, 2023-07-21)"
   sodipodi:docname="Stars a.svg"
   xmlns:inkscape="http://www.inkscape.org/namespaces/inkscape"
   xmlns:sodipodi="http://sodipodi.sourceforge.net/DTD/sodipodi-0.dtd"
   xmlns="http://www.w3.org/2000/svg"
   xmlns:svg="http://www.w3.org/2000/svg">
  <sodipodi:namedview
     id="namedview1"
     pagecolor="#505050"
     bordercolor="#eeeeee"
     borderopacity="1"
     inkscape:showpageshadow="0"
     inkscape:pageopacity="0"
     inkscape:pagecheckerboard="0"
     inkscape:deskcolor="#505050"
     inkscape:document-units="mm"
     inkscape:zoom="5.7299663"
     inkscape:cx="75.044071"
     inkscape:cy="84.642731"
     inkscape:window-width="1920"
     inkscape:window-height="1010"
     inkscape:window-x="1440"
     inkscape:window-y="34"
     inkscape:window-maximized="1"
     inkscape:current-layer="layer1" />
  <defs
     id="defs1" />
  <g
     inkscape:label="Capa 1"
     inkscape:groupmode="layer"
     id="layer1">
    <g
       id="g19"
       transform="matrix(0.26458333,0,0,0.26458561,-66.281101,-46.484781)">&#10;			<path
   style="fill:#726958"
   d="m 335.501,253.828 c -32.237,3.074 -34.691,6.49 -36.585,57.906 -0.008,0.224 -0.34,0.224 -0.349,0 -1.894,-51.415 -4.348,-54.832 -36.585,-57.906 -0.211,-0.02 -0.211,-0.327 0,-0.347 32.237,-3.074 34.691,-6.49 36.585,-57.906 0.008,-0.224 0.34,-0.224 0.349,0 1.894,51.415 4.348,54.832 36.585,57.906 0.211,0.02 0.211,0.327 0,0.347 z"
   id="path17" />
&#10;			<path
   style="fill:#726958"
   d="m 356.574,208.93 c -18.342,1.749 -19.738,3.693 -20.816,32.947 -0.005,0.128 -0.194,0.128 -0.198,0 -1.078,-29.254 -2.474,-31.198 -20.816,-32.947 -0.12,-0.012 -0.12,-0.186 0,-0.198 18.342,-1.749 19.738,-3.693 20.816,-32.947 0.005,-0.128 0.194,-0.128 0.198,0 1.078,29.254 2.474,31.198 20.816,32.947 0.12,0.012 0.12,0.186 0,0.198 z"
   id="path18" />
&#10;			<path
   style="fill:#726958"
   d="m 276.085,209.897 c -11.19,1.067 -12.042,2.253 -12.699,20.1 -0.003,0.078 -0.118,0.078 -0.121,0 -0.657,-17.847 -1.509,-19.033 -12.699,-20.1 -0.073,-0.007 -0.073,-0.114 0,-0.121 11.19,-1.067 12.042,-2.253 12.699,-20.1 0.003,-0.078 0.118,-0.078 0.121,0 0.658,17.847 1.509,19.033 12.699,20.1 0.073,0.008 0.073,0.114 0,0.121 z"
   id="path19" />
&#10;		</g>
  </g>
</svg>
