<?xml version="1.0" encoding="UTF-8" standalone="no"?>
<!-- Generator: Adobe Illustrator 27.5.0, SVG Export Plug-In . SVG Version: 6.00 Build 0)  -->

<svg
   version="1.1"
   x="0px"
   y="0px"
   viewBox="0 0 750 500"
   style="enable-background:new 0 0 750 500;"
   xml:space="preserve"
   id="svg32"
   sodipodi:docname="stars.svg"
   inkscape:version="1.3 (0e150ed6c4, 2023-07-21)"
   xmlns:inkscape="http://www.inkscape.org/namespaces/inkscape"
   xmlns:sodipodi="http://sodipodi.sourceforge.net/DTD/sodipodi-0.dtd"
   xmlns="http://www.w3.org/2000/svg"
   xmlns:svg="http://www.w3.org/2000/svg"><defs
   id="defs32">&#10;		&#10;		&#10;		&#10;		&#10;		&#10;		&#10;		&#10;		&#10;		&#10;		&#10;		&#10;		&#10;	</defs><sodipodi:namedview
   id="namedview32"
   pagecolor="#505050"
   bordercolor="#eeeeee"
   borderopacity="1"
   inkscape:showpageshadow="0"
   inkscape:pageopacity="0"
   inkscape:pagecheckerboard="0"
   inkscape:deskcolor="#505050"
   inkscape:zoom="1.0644314"
   inkscape:cx="429.80693"
   inkscape:cy="265.86964"
   inkscape:window-width="1920"
   inkscape:window-height="1010"
   inkscape:window-x="1440"
   inkscape:window-y="34"
   inkscape:window-maximized="1"
   inkscape:current-layer="svg32" />&#10;	&#10;	<g
   id="g3">&#10;			<path
   style="fill:#726958"
   d="M 166.103,87.538 C 127.36,96.843 120.546,104.386 112.14,147.272 103.734,104.386 96.92,96.843 58.177,87.538 96.92,78.233 103.734,70.69 112.14,27.804 c 8.406,42.886 15.22,50.429 53.963,59.734 z"
   id="path1" />&#10;			<path
   style="fill:#726958"
   d="m 172.937,48.868 c -12.205,2.931 -14.352,5.308 -17,18.818 -2.648,-13.51 -4.795,-15.887 -17,-18.818 12.205,-2.931 14.352,-5.308 17,-18.818 2.648,13.511 4.795,15.887 17,18.818 z"
   id="path2" />&#10;			<path
   style="fill:#726958"
   d="m 76.501,119.535 c -7.408,1.779 -8.711,3.222 -10.318,11.422 -1.607,-8.2 -2.91,-9.643 -10.318,-11.422 7.408,-1.779 8.711,-3.221 10.318,-11.422 1.607,8.2 2.91,9.642 10.318,11.422 z"
   id="path3" />&#10;		</g><g
   id="g5">&#10;			<path
   style="fill:#726958"
   d="m 670.807,231.858 c -30.216,7.257 -35.531,13.14 -42.087,46.588 -6.556,-33.448 -11.871,-39.331 -42.087,-46.588 30.216,-7.257 35.531,-13.14 42.087,-46.588 6.556,33.448 11.871,39.331 42.087,46.588 z"
   id="path4" />&#10;			<path
   style="fill:#726958"
   d="m 707.309,273.504 c -19.169,4.604 -22.541,8.336 -26.7,29.555 -4.159,-21.219 -7.531,-24.951 -26.7,-29.555 19.169,-4.604 22.541,-8.336 26.7,-29.555 4.159,21.219 7.531,24.951 26.7,29.555 z"
   id="path5" />&#10;		</g><path
   style="fill:#726958"
   d="m 321.51,93.595 c 8.495,-4.307 21.114,-6.145 40.48,-8.123 -19.6,-2.002 -32.289,-3.861 -40.786,-8.281 2.763,-9.174 10.28,-19.557 22.542,-34.998 -14.944,12.488 -25.071,20.232 -34.088,23.304 -4.307,-8.495 -6.145,-21.114 -8.123,-40.48 -2.002,19.6 -3.861,32.289 -8.281,40.786 -9.174,-2.763 -19.557,-10.28 -34.998,-22.542 12.488,14.944 20.232,25.071 23.304,34.088 -8.495,4.307 -21.114,6.145 -40.48,8.123 19.6,2.002 32.289,3.861 40.786,8.281 -2.763,9.174 -10.28,19.557 -22.542,34.998 14.944,-12.488 25.071,-20.232 34.088,-23.304 4.307,8.495 6.145,21.114 8.123,40.48 2.002,-19.6 3.861,-32.289 8.281,-40.786 9.174,2.763 19.557,10.28 34.998,22.542 C 332.326,112.74 324.582,102.612 321.51,93.595 Z"
   id="path6" /><g
   id="g9">&#10;			<path
   style="fill:#726958"
   d="m 326.676,417.793 c 9.357,-6.433 24.16,-8.741 48.752,-11.253 -24.922,-2.546 -39.793,-4.881 -49.128,-11.514 2.592,-5.443 6.953,-11.623 13.088,-19.511 0.461,-0.593 -0.317,-1.352 -0.898,-0.876 -7.639,6.254 -13.656,10.74 -18.984,13.477 -6.433,-9.357 -8.741,-24.16 -11.253,-48.752 -2.546,24.922 -4.881,39.793 -11.514,49.128 -5.443,-2.592 -11.623,-6.953 -19.511,-13.088 -0.593,-0.461 -1.352,0.317 -0.876,0.898 6.254,7.639 10.74,13.656 13.477,18.984 -9.357,6.433 -24.16,8.741 -48.752,11.253 24.922,2.545 39.793,4.881 49.128,11.514 -2.592,5.443 -6.953,11.623 -13.088,19.511 -0.461,0.593 0.317,1.352 0.898,0.876 7.638,-6.254 13.656,-10.74 18.984,-13.477 6.433,9.357 8.741,24.16 11.253,48.752 2.545,-24.922 4.881,-39.793 11.514,-49.128 5.443,2.592 11.623,6.953 19.511,13.088 0.593,0.461 1.352,-0.317 0.876,-0.898 -6.254,-7.639 -10.74,-13.656 -13.477,-18.984 z"
   id="path7" />&#10;			<path
   style="fill:#726958"
   d="m 351.913,353.728 c -0.475,1.001 -1.267,2.133 -2.396,3.584 -0.085,0.109 0.058,0.248 0.165,0.161 1.405,-1.15 2.506,-1.964 3.486,-2.466 1.178,1.718 1.604,4.431 2.064,8.94 0.467,-4.57 0.896,-7.297 2.111,-9.011 1.001,0.475 2.133,1.267 3.584,2.396 0.109,0.085 0.248,-0.058 0.161,-0.165 -1.15,-1.405 -1.964,-2.506 -2.466,-3.486 1.718,-1.178 4.431,-1.604 8.94,-2.064 -4.57,-0.467 -7.297,-0.896 -9.011,-2.111 0.475,-1.001 1.267,-2.133 2.396,-3.584 0.085,-0.109 -0.058,-0.248 -0.165,-0.161 -1.405,1.15 -2.506,1.964 -3.486,2.465 -1.178,-1.718 -1.604,-4.431 -2.064,-8.94 -0.467,4.57 -0.896,7.297 -2.111,9.011 -1.001,-0.475 -2.133,-1.267 -3.584,-2.396 -0.109,-0.085 -0.248,0.058 -0.161,0.165 1.15,1.405 1.964,2.506 2.466,3.486 -1.718,1.178 -4.431,1.604 -8.94,2.064 4.57,0.469 7.297,0.898 9.011,2.112 z"
   id="path8" />&#10;			<path
   style="fill:#726958"
   d="m 266.97,454.183 c 0.475,-1.001 1.267,-2.133 2.396,-3.584 0.085,-0.109 -0.058,-0.248 -0.165,-0.161 -1.405,1.15 -2.506,1.963 -3.486,2.466 -1.178,-1.718 -1.604,-4.431 -2.064,-8.94 -0.467,4.57 -0.896,7.297 -2.111,9.011 -1.001,-0.475 -2.133,-1.267 -3.584,-2.396 -0.109,-0.085 -0.248,0.058 -0.161,0.165 1.15,1.405 1.963,2.506 2.466,3.486 -1.718,1.178 -4.431,1.604 -8.94,2.064 4.57,0.467 7.297,0.896 9.011,2.111 -0.475,1.001 -1.267,2.133 -2.396,3.584 -0.085,0.109 0.058,0.248 0.165,0.161 1.405,-1.15 2.506,-1.963 3.486,-2.466 1.178,1.718 1.604,4.431 2.064,8.94 0.467,-4.57 0.896,-7.297 2.111,-9.011 1.001,0.475 2.133,1.267 3.584,2.396 0.109,0.085 0.248,-0.058 0.161,-0.165 -1.15,-1.405 -1.964,-2.506 -2.466,-3.486 1.718,-1.178 4.431,-1.604 8.94,-2.064 -4.57,-0.467 -7.297,-0.896 -9.011,-2.111 z"
   id="path9" />&#10;		</g><g
   id="g12">&#10;			<path
   style="fill:#726958"
   d="m 525.196,142.575 c -39.762,-32.392 -45.736,-32.392 -85.497,0 32.392,-39.761 32.392,-45.736 0,-85.497 39.762,32.392 45.736,32.392 85.497,0 -32.392,39.762 -32.392,45.736 0,85.497 z"
   id="path10" />&#10;			<path
   style="fill:#726958"
   d="m 452.862,47.206 c -8.76,-7.137 -10.077,-7.137 -18.837,0 7.137,-8.761 7.137,-10.077 0,-18.837 8.76,7.137 10.077,7.137 18.837,0 -7.137,8.76 -7.137,10.076 0,18.837 z"
   id="path11" />&#10;			<path
   style="fill:#726958"
   d="m 545.788,130.647 c -8.76,-7.137 -10.077,-7.137 -18.837,0 7.137,-8.76 7.137,-10.077 0,-18.837 8.76,7.137 10.077,7.137 18.837,0 -7.137,8.761 -7.137,10.077 0,18.837 z"
   id="path12" />&#10;		</g><g
   id="g15">&#10;			<path
   style="fill:#726958"
   d="m 644.481,32.901 11.439,35.205 c 0.149,0.458 0.576,0.768 1.058,0.768 h 37.017 c 1.077,0 1.525,1.379 0.654,2.012 L 664.7,92.644 c -0.39,0.283 -0.553,0.785 -0.404,1.243 l 11.439,35.205 c 0.333,1.025 -0.84,1.877 -1.711,1.243 l -29.947,-21.758 c -0.39,-0.283 -0.918,-0.283 -1.307,0 l -29.947,21.758 c -0.872,0.633 -2.044,-0.219 -1.711,-1.243 l 11.439,-35.205 c 0.149,-0.458 -0.014,-0.96 -0.404,-1.243 L 592.2,70.886 c -0.872,-0.633 -0.424,-2.012 0.654,-2.012 h 37.017 c 0.482,0 0.909,-0.31 1.058,-0.768 l 11.439,-35.205 c 0.33,-1.025 1.78,-1.025 2.113,0 z"
   id="path13" />&#10;			<path
   style="fill:#726958"
   d="m 607.399,24.98 2.749,8.459 c 0.036,0.11 0.138,0.185 0.254,0.185 h 8.895 c 0.259,0 0.367,0.331 0.157,0.483 l -7.196,5.228 c -0.094,0.068 -0.133,0.189 -0.097,0.299 l 2.749,8.46 c 0.08,0.246 -0.202,0.451 -0.411,0.299 l -7.196,-5.228 c -0.094,-0.068 -0.221,-0.068 -0.314,0 l -7.196,5.228 c -0.209,0.152 -0.491,-0.053 -0.411,-0.299 l 2.749,-8.46 c 0.036,-0.11 -0.003,-0.231 -0.097,-0.299 l -7.196,-5.228 c -0.209,-0.152 -0.102,-0.483 0.157,-0.483 h 8.895 c 0.116,0 0.218,-0.075 0.254,-0.185 l 2.749,-8.459 c 0.078,-0.246 0.426,-0.246 0.506,0 z"
   id="path14" />&#10;			<path
   style="fill:#726958"
   d="m 689.55,97.073 1.657,5.099 c 0.022,0.066 0.083,0.111 0.153,0.111 h 5.361 c 0.156,0 0.221,0.2 0.095,0.291 l -4.337,3.151 c -0.056,0.041 -0.08,0.114 -0.058,0.18 l 1.657,5.099 c 0.048,0.148 -0.122,0.272 -0.248,0.18 l -4.337,-3.151 c -0.056,-0.041 -0.133,-0.041 -0.189,0 l -4.337,3.151 c -0.126,0.092 -0.296,-0.032 -0.248,-0.18 l 1.657,-5.099 c 0.022,-0.066 -0.002,-0.139 -0.058,-0.18 l -4.337,-3.151 c -0.126,-0.092 -0.061,-0.291 0.095,-0.291 h 5.361 c 0.07,0 0.132,-0.045 0.153,-0.111 l 1.657,-5.099 c 0.045,-0.148 0.255,-0.148 0.303,0 z"
   id="path15" />&#10;		</g><g
   id="g16">&#10;			<path
   style="fill:#726958"
   d="m 456.341,288.901 c 15.239,-26.395 43.541,-26.395 58.781,0 -15.239,-26.395 -1.089,-50.905 29.39,-50.905 -30.479,0 -44.63,-24.51 -29.39,-50.906 -15.239,26.396 -43.541,26.396 -58.781,0 15.239,26.396 1.089,50.906 -29.39,50.906 30.479,0 44.629,24.51 29.39,50.905 z"
   id="path16" />&#10;		</g><g
   id="g19">&#10;			<path
   style="fill:#726958"
   d="m 335.501,253.828 c -32.237,3.074 -34.691,6.49 -36.585,57.906 -0.008,0.224 -0.34,0.224 -0.349,0 -1.894,-51.415 -4.348,-54.832 -36.585,-57.906 -0.211,-0.02 -0.211,-0.327 0,-0.347 32.237,-3.074 34.691,-6.49 36.585,-57.906 0.008,-0.224 0.34,-0.224 0.349,0 1.894,51.415 4.348,54.832 36.585,57.906 0.211,0.02 0.211,0.327 0,0.347 z"
   id="path17" />&#10;			<path
   style="fill:#726958"
   d="m 356.574,208.93 c -18.342,1.749 -19.738,3.693 -20.816,32.947 -0.005,0.128 -0.194,0.128 -0.198,0 -1.078,-29.254 -2.474,-31.198 -20.816,-32.947 -0.12,-0.012 -0.12,-0.186 0,-0.198 18.342,-1.749 19.738,-3.693 20.816,-32.947 0.005,-0.128 0.194,-0.128 0.198,0 1.078,29.254 2.474,31.198 20.816,32.947 0.12,0.012 0.12,0.186 0,0.198 z"
   id="path18" />&#10;			<path
   style="fill:#726958"
   d="m 276.085,209.897 c -11.19,1.067 -12.042,2.253 -12.699,20.1 -0.003,0.078 -0.118,0.078 -0.121,0 -0.657,-17.847 -1.509,-19.033 -12.699,-20.1 -0.073,-0.007 -0.073,-0.114 0,-0.121 11.19,-1.067 12.042,-2.253 12.699,-20.1 0.003,-0.078 0.118,-0.078 0.121,0 0.658,17.847 1.509,19.033 12.699,20.1 0.073,0.008 0.073,0.114 0,0.121 z"
   id="path19" />&#10;		</g><g
   id="g23">&#10;			<path
   style="fill:#726958"
   d="m 450.018,379.98 c 36.976,18.54 38.53,23.045 20.424,73.931 -0.079,0.222 0.314,0.382 0.413,0.168 22.594,-49.059 26.853,-51.196 66.262,-38.631 0.258,0.082 0.379,-0.216 0.138,-0.338 -36.976,-18.54 -38.53,-23.045 -20.424,-73.931 0.079,-0.222 -0.314,-0.382 -0.413,-0.168 -22.594,49.059 -26.853,51.196 -66.262,38.631 -0.258,-0.082 -0.38,0.216 -0.138,0.338 z"
   id="path20" />&#10;			<path
   style="fill:#726958"
   d="m 454.643,342.87 c 13.216,6.627 13.772,8.237 7.3,26.425 -0.028,0.079 0.112,0.137 0.148,0.06 8.076,-17.535 9.598,-18.299 23.684,-13.808 0.092,0.029 0.136,-0.077 0.049,-0.121 -13.216,-6.627 -13.772,-8.237 -7.3,-26.425 0.028,-0.079 -0.112,-0.137 -0.148,-0.06 -8.076,17.535 -9.598,18.299 -23.684,13.807 -0.092,-0.028 -0.135,0.078 -0.049,0.122 z"
   id="path21" />&#10;			<path
   style="fill:#726958"
   d="m 493.998,436.889 c 9.07,4.548 9.451,5.653 5.01,18.135 -0.019,0.054 0.077,0.094 0.101,0.041 5.542,-12.034 6.587,-12.558 16.254,-9.476 0.063,0.02 0.093,-0.053 0.034,-0.083 -9.07,-4.548 -9.451,-5.653 -5.01,-18.135 0.019,-0.054 -0.077,-0.094 -0.101,-0.041 -5.542,12.034 -6.587,12.558 -16.254,9.476 -0.063,-0.02 -0.093,0.053 -0.034,0.083 z"
   id="path22" />&#10;			<path
   style="fill:#726958"
   d="m 524.305,388.274 c 7.877,3.95 8.208,4.909 4.351,15.75 -0.017,0.047 0.067,0.081 0.088,0.036 4.813,-10.451 5.721,-10.906 14.116,-8.23 0.055,0.017 0.081,-0.046 0.029,-0.072 -7.877,-3.95 -8.208,-4.909 -4.351,-15.75 0.017,-0.047 -0.067,-0.081 -0.088,-0.036 -4.813,10.451 -5.721,10.906 -14.116,8.23 -0.055,-0.017 -0.08,0.046 -0.029,0.072 z"
   id="path23" />&#10;		</g><g
   id="g25">&#10;			<path
   style="fill:#726958"
   d="m 652.235,341.062 c 0,34.613 5.365,55.844 11.4,45.115 -6.035,10.729 13.908,1.686 42.38,-19.216 -28.472,20.902 -41.725,38.333 -28.164,37.041 -13.561,1.292 5.943,11.247 41.447,21.153 -35.504,-9.907 -57.395,-9.401 -46.52,1.075 -10.875,-10.476 -6.497,10.98 9.303,45.593 -15.8,-34.613 -29.846,-51.414 -29.846,-35.701 0,-15.713 -14.045,1.087 -29.846,35.701 15.801,-34.613 20.179,-56.069 9.304,-45.593 10.875,-10.476 -11.017,-10.982 -46.52,-1.075 35.504,-9.907 55.008,-19.861 41.447,-21.153 13.561,1.292 0.307,-16.139 -28.164,-37.041 28.472,20.902 48.415,29.945 42.38,19.216 6.034,10.729 11.399,-10.501 11.399,-45.115 z"
   id="path24" />&#10;			<path
   style="fill:#726958"
   d="m 619.574,333.657 c 0,7.297 1.131,11.772 2.403,9.511 -1.272,2.262 2.932,0.356 8.934,-4.051 -6.002,4.406 -8.796,8.081 -5.937,7.809 -2.859,0.272 1.253,2.371 8.737,4.459 -7.484,-2.088 -12.1,-1.982 -9.807,0.227 -2.293,-2.208 -1.37,2.315 1.961,9.612 -3.331,-7.297 -6.292,-10.839 -6.292,-7.526 0,-3.313 -2.961,0.229 -6.292,7.526 3.331,-7.297 4.254,-11.82 1.961,-9.612 2.293,-2.208 -2.322,-2.315 -9.807,-0.227 7.484,-2.088 11.596,-4.187 8.737,-4.459 2.859,0.272 0.065,-3.402 -5.937,-7.809 6.002,4.406 10.206,6.313 8.934,4.051 1.274,2.262 2.405,-2.214 2.405,-9.511 z"
   id="path25" />&#10;		</g><g
   id="g26">&#10;			<polygon
   style="fill:#726958"
   points="161.258,203.821 126.886,239.626 173.389,256.971 123.966,252.422 139.399,299.594 112.14,258.117 84.882,299.594 100.314,252.422 50.891,256.971 97.394,239.626 63.022,203.821 105.577,229.364 112.14,180.167 118.703,229.364 "
   id="polygon25" />&#10;			<polygon
   style="fill:#726958"
   points="184.495,168.988 175.999,177.837 187.493,182.124 175.277,181 179.092,192.659 172.354,182.408 165.617,192.659 169.432,181 157.216,182.124 168.71,177.837 160.214,168.988 170.732,175.301 172.354,163.141 173.977,175.301 "
   id="polygon26" />&#10;		</g><g
   id="g32">&#10;			<g
   id="g27">&#10;				<path
   style="fill:#726958"
   d="m 121.027,401.223 c 11.491,2.233 31.611,-0.806 65.401,-4.078 -33.79,-3.272 -53.911,-6.311 -65.402,-4.078 6.905,-5.657 15.67,-17.347 30.274,-35.082 -17.736,14.604 -29.426,23.369 -35.082,30.274 2.234,-11.491 -0.806,-31.611 -4.078,-65.402 -3.272,33.791 -6.311,53.911 -4.078,65.402 -5.657,-6.905 -17.347,-15.67 -35.082,-30.274 14.604,17.736 23.369,29.426 30.274,35.082 -11.491,-2.234 -31.611,0.806 -65.402,4.078 33.79,3.272 53.911,6.311 65.401,4.078 -6.905,5.657 -15.67,17.347 -30.274,35.082 17.736,-14.604 29.426,-23.369 35.082,-30.274 -2.234,11.491 0.806,31.611 4.078,65.402 3.272,-33.79 6.311,-53.911 4.078,-65.402 5.657,6.905 17.347,15.67 35.082,30.274 -14.603,-17.735 -23.368,-29.425 -30.272,-35.082 z m -8.999,-3.761 c 0.003,-0.072 0.009,-0.143 0.01,-0.215 -0.072,10e-4 -0.143,0.007 -0.215,0.01 0.04,-0.038 0.083,-0.073 0.123,-0.112 -0.04,-0.039 -0.083,-0.074 -0.123,-0.112 0.071,0.003 0.143,0.009 0.215,0.01 -10e-4,-0.072 -0.007,-0.143 -0.01,-0.215 0.038,0.04 0.073,0.083 0.112,0.123 0.039,-0.04 0.074,-0.083 0.112,-0.123 -0.002,0.072 -0.009,0.143 -0.01,0.215 0.071,-0.001 0.143,-0.007 0.215,-0.01 -0.04,0.038 -0.083,0.073 -0.123,0.112 0.04,0.039 0.083,0.074 0.123,0.112 -0.072,-0.003 -0.143,-0.009 -0.215,-0.01 10e-4,0.071 0.007,0.143 0.01,0.215 -0.038,-0.04 -0.073,-0.083 -0.112,-0.123 -0.039,0.04 -0.074,0.083 -0.112,0.123 z"
   id="path26" />&#10;				<path
   style="fill:#726958"
   d="m 112.242,397.247 c 0,-0.006 -0.001,-0.012 -0.001,-0.018 0.03,-0.029 0.063,-0.055 0.092,-0.084 -0.03,-0.029 -0.063,-0.055 -0.092,-0.084 0,-0.006 0.001,-0.012 0.001,-0.018 -0.006,0 -0.012,10e-4 -0.018,10e-4 -0.03,-0.029 -0.055,-0.063 -0.084,-0.093 -0.029,0.03 -0.055,0.063 -0.084,0.092 -0.006,0 -0.012,-0.001 -0.018,-0.001 0,0.006 0.001,0.012 0.001,0.018 -0.029,0.029 -0.063,0.055 -0.092,0.084 0.03,0.029 0.063,0.055 0.092,0.084 0,0.006 -0.001,0.012 -0.001,0.018 0.006,0 0.012,-10e-4 0.018,-10e-4 0.029,0.03 0.055,0.063 0.084,0.092 0.029,-0.03 0.055,-0.063 0.084,-0.092 0.006,10e-4 0.012,0.002 0.018,0.002 z"
   id="path27" />&#10;			</g>&#10;			<g
   id="g29">&#10;				<path
   style="fill:#726958"
   d="m 179.041,348.488 c 2.769,0.538 7.616,-0.194 15.758,-0.982 -8.141,-0.788 -12.989,-1.521 -15.758,-0.983 1.664,-1.363 3.775,-4.18 7.294,-8.453 -4.273,3.519 -7.09,5.63 -8.453,7.294 0.538,-2.769 -0.194,-7.616 -0.982,-15.758 -0.788,8.142 -1.521,12.989 -0.982,15.758 -1.363,-1.664 -4.18,-3.775 -8.453,-7.294 3.519,4.273 5.63,7.09 7.294,8.453 -2.769,-0.538 -7.616,0.194 -15.758,0.983 8.141,0.788 12.989,1.521 15.758,0.982 -1.664,1.363 -3.775,4.18 -7.294,8.453 4.273,-3.519 7.09,-5.63 8.453,-7.294 -0.538,2.769 0.194,7.616 0.982,15.758 0.788,-8.142 1.521,-12.989 0.982,-15.758 1.363,1.664 4.18,3.775 8.453,7.294 -3.518,-4.273 -5.63,-7.089 -7.294,-8.453 z m -2.168,-0.906 c 0.001,-0.017 0.002,-0.034 0.002,-0.052 -0.017,0 -0.035,0.002 -0.052,0.002 0.01,-0.009 0.02,-0.018 0.03,-0.027 -0.009,-0.009 -0.02,-0.018 -0.03,-0.027 0.017,10e-4 0.035,0.002 0.052,0.002 0,-0.017 -0.002,-0.035 -0.002,-0.052 0.009,0.01 0.018,0.02 0.027,0.03 0.009,-0.009 0.018,-0.02 0.027,-0.03 -0.001,0.017 -0.002,0.035 -0.002,0.052 0.017,0 0.035,-0.002 0.052,-0.002 -0.01,0.009 -0.02,0.018 -0.03,0.027 0.01,0.009 0.02,0.018 0.03,0.027 -0.017,-10e-4 -0.034,-0.002 -0.052,-0.002 0,0.017 0.002,0.034 0.002,0.052 -0.009,-0.01 -0.018,-0.02 -0.027,-0.03 -0.009,0.01 -0.018,0.021 -0.027,0.03 z"
   id="path28" />&#10;				<path
   style="fill:#726958"
   d="m 176.925,347.531 c 0,-0.001 0,-0.003 0,-0.004 0.007,-0.007 0.015,-0.013 0.022,-0.02 -0.007,-0.007 -0.015,-0.013 -0.022,-0.02 0,-0.001 0,-0.003 0,-0.004 -0.001,0 -0.003,0 -0.004,0 -0.007,-0.007 -0.013,-0.015 -0.02,-0.022 -0.007,0.007 -0.013,0.015 -0.02,0.022 -0.002,0 -0.003,0 -0.004,0 0,10e-4 0,0.003 0,0.004 -0.007,0.007 -0.015,0.013 -0.022,0.02 0.007,0.007 0.015,0.013 0.022,0.02 0,0.001 0,0.003 0,0.004 10e-4,0 0.003,0 0.004,0 0.007,0.007 0.013,0.015 0.02,0.022 0.007,-0.007 0.013,-0.015 0.02,-0.022 0.001,-0.001 0.002,0 0.004,0 z"
   id="path29" />&#10;			</g>&#10;			<g
   id="g31">&#10;				<path
   style="fill:#726958"
   d="m 58.151,433.033 c 1.817,0.353 5,-0.128 10.345,-0.645 -5.345,-0.518 -8.527,-0.998 -10.345,-0.645 1.092,-0.895 2.478,-2.744 4.788,-5.549 -2.805,2.31 -4.654,3.696 -5.549,4.788 0.353,-1.818 -0.127,-5 -0.645,-10.345 -0.518,5.345 -0.998,8.527 -0.645,10.345 -0.895,-1.092 -2.744,-2.478 -5.549,-4.788 2.31,2.805 3.696,4.654 4.788,5.549 -1.817,-0.353 -5,0.127 -10.345,0.645 5.345,0.517 8.527,0.998 10.345,0.645 -1.092,0.895 -2.479,2.744 -4.788,5.549 2.805,-2.31 4.654,-3.696 5.549,-4.788 -0.353,1.817 0.127,5 0.645,10.345 0.518,-5.345 0.998,-8.527 0.645,-10.345 0.895,1.092 2.744,2.478 5.549,4.788 -2.309,-2.805 -3.696,-4.654 -4.788,-5.549 z m -1.423,-0.595 c 0,-0.011 10e-4,-0.023 0.002,-0.034 -0.011,0 -0.023,10e-4 -0.034,0.002 0.006,-0.006 0.013,-0.012 0.019,-0.018 -0.006,-0.006 -0.013,-0.012 -0.019,-0.018 0.011,0 0.023,10e-4 0.034,0.002 0,-0.011 -10e-4,-0.023 -0.002,-0.034 0.006,0.006 0.012,0.013 0.018,0.019 0.006,-0.006 0.012,-0.013 0.018,-0.019 0,0.011 -0.001,0.023 -0.002,0.034 0.011,0 0.023,-0.001 0.034,-0.002 -0.006,0.006 -0.013,0.012 -0.019,0.018 0.006,0.006 0.013,0.012 0.019,0.018 -0.011,0 -0.023,-0.001 -0.034,-0.002 0,0.011 10e-4,0.023 0.002,0.034 -0.006,-0.006 -0.012,-0.013 -0.018,-0.019 -0.007,0.006 -0.012,0.013 -0.018,0.019 z"
   id="path30" />&#10;				<path
   style="fill:#726958"
   d="m 56.762,432.404 c 0,-10e-4 0,-0.002 0,-0.003 0.005,-0.005 0.01,-0.009 0.015,-0.013 -0.005,-0.005 -0.01,-0.009 -0.015,-0.013 0,-10e-4 0,-0.002 0,-0.003 -10e-4,0 -0.002,0 -0.003,0 -0.005,-0.005 -0.009,-0.01 -0.013,-0.015 -0.005,0.005 -0.009,0.01 -0.013,0.015 -10e-4,0 -0.002,0 -0.003,0 0,10e-4 0,0.002 0,0.003 -0.005,0.005 -0.01,0.009 -0.015,0.013 0.005,0.005 0.01,0.009 0.015,0.013 0,10e-4 0,0.002 0,0.003 0.001,0 0.002,0 0.003,0 0.005,0.005 0.009,0.01 0.013,0.015 0.005,-0.005 0.009,-0.01 0.013,-0.015 10e-4,0 0.002,0 0.003,0 z"
   id="path31" />&#10;			</g>&#10;		</g>&#10;</svg>
